# Blender 5.2.1 LTS
# www.blender.org
o Door_Key
v 0.000264 0.000000 -0.037599
v -0.003190 0.000000 -0.037258
v -0.006512 0.000000 -0.036251
v -0.009573 0.000000 -0.034615
v -0.012256 0.000000 -0.032413
v -0.014458 0.000000 -0.029730
v -0.016094 0.000000 -0.026669
v -0.017101 0.000000 -0.023347
v -0.017441 0.000000 -0.019893
v -0.017101 0.000000 -0.016439
v -0.016094 0.000000 -0.013118
v -0.014458 0.000000 -0.010057
v -0.012256 0.000000 -0.007374
v -0.009573 0.000000 -0.005172
v -0.003190 0.000000 -0.002528
v 0.000264 0.000000 -0.002188
v 0.003718 0.000000 -0.002528
v 0.007039 0.000000 -0.003535
v 0.010101 0.000000 -0.005172
v 0.012784 0.000000 -0.007374
v 0.014985 0.000000 -0.010057
v 0.016622 0.000000 -0.013118
v 0.017629 0.000000 -0.016439
v 0.017969 0.000000 -0.019893
v 0.017629 0.000000 -0.023347
v 0.016622 0.000000 -0.026669
v 0.014985 0.000000 -0.029730
v 0.012784 0.000000 -0.032413
v 0.010101 0.000000 -0.034615
v 0.007039 0.000000 -0.036251
v 0.003718 0.000000 -0.037258
v 0.008734 -0.000553 -0.003377
v 0.008807 -0.000553 0.006447
v 0.006755 0.000000 0.009159
v 0.005288 0.000000 0.010626
v 0.005435 -0.000467 0.011799
v 0.006021 -0.000811 0.012678
v 0.005582 -0.000811 0.014365
v 0.005068 -0.000811 0.015611
v 0.006095 -0.000811 0.018030
v 0.004335 0.000000 0.020376
v 0.003822 0.000000 0.021696
v 0.004115 -0.000222 0.022869
v 0.005655 -0.000811 0.024848
v 0.006095 -0.000811 0.025654
v 0.005435 -0.000811 0.027267
v 0.005288 -0.000811 0.028074
v 0.005875 -0.000811 0.028880
v 0.005801 -0.000811 0.029760
v 0.004042 0.000000 0.032179
v 0.003162 -0.001081 0.033645
v 0.003089 -0.001081 0.034818
v 0.003969 0.000000 0.035845
v 0.005508 -0.000811 0.037091
v 0.005728 -0.000811 0.037824
v 0.004702 -0.000811 0.039070
v 0.004775 -0.000811 0.040390
v 0.005068 -0.000811 0.041196
v 0.005068 -0.000811 0.042149
v 0.004262 0.000000 0.042809
v 0.003236 -0.001081 0.043176
v 0.002576 0.000000 0.043762
v -0.001310 0.000000 0.047721
v -0.002556 -0.001081 0.047721
v -0.003949 -0.001081 0.046475
v -0.004462 -0.000656 0.045668
v -0.005342 0.000000 0.044935
v -0.006955 0.000000 0.043322
v -0.006955 0.000000 0.009013
v -0.007394 0.000000 0.008206
v -0.007541 0.000000 0.005860
v -0.007541 0.000000 -0.004183
v -0.005602 0.000000 0.007464
v -0.005806 0.000000 0.006191
v -0.005297 0.000000 0.000184
v -0.004533 0.000000 -0.001394
v -0.003719 0.000000 -0.001343
v -0.002904 0.000000 0.000439
v -0.002242 0.000000 0.002679
v -0.002090 0.000000 0.005377
v 0.002289 0.000000 0.006395
v 0.003561 0.000000 -0.001089
v 0.006565 0.000000 0.002679
v 0.002853 -0.001081 0.008463
v -0.000000 0.000000 -0.034394
v -0.001013 0.000000 -0.034295
v -0.001987 0.000000 -0.033999
v -0.002885 0.000000 -0.033519
v -0.003672 0.000000 -0.032874
v -0.004317 0.000000 -0.032087
v -0.004797 0.000000 -0.031189
v -0.005093 0.000000 -0.030215
v -0.005192 0.000000 -0.029202
v -0.005093 0.000000 -0.028189
v -0.004797 0.000000 -0.027215
v -0.004317 0.000000 -0.026318
v -0.003672 0.000000 -0.025531
v -0.002885 0.000000 -0.024885
v -0.001987 0.000000 -0.024405
v -0.001013 0.000000 -0.024110
v -0.000000 0.000000 -0.024010
v 0.001013 0.000000 -0.024110
v 0.001987 0.000000 -0.024405
v 0.002885 0.000000 -0.024885
v 0.003671 0.000000 -0.025531
v 0.004317 0.000000 -0.026318
v 0.004797 0.000000 -0.027215
v 0.005093 0.000000 -0.028189
v 0.005192 0.000000 -0.029202
v 0.005093 0.000000 -0.030215
v 0.004797 0.000000 -0.031189
v 0.004317 0.000000 -0.032087
v 0.003671 0.000000 -0.032874
v 0.002885 0.000000 -0.033519
v 0.001987 0.000000 -0.033999
v 0.001013 0.000000 -0.034295
v 0.000264 0.000678 -0.036606
v -0.002997 0.000678 -0.036285
v -0.006132 0.000678 -0.035334
v -0.009021 0.000678 -0.033789
v -0.011554 0.000678 -0.031711
v -0.013632 0.000678 -0.029178
v -0.015177 0.000678 -0.026289
v -0.016128 0.000678 -0.023154
v -0.016449 0.000678 -0.019893
v -0.016128 0.000678 -0.016633
v -0.015177 0.000678 -0.013497
v -0.013632 0.000678 -0.010608
v -0.011554 0.000678 -0.008076
v -0.009021 0.000678 -0.005997
v 0.009549 0.000678 -0.005997
v 0.012082 0.000678 -0.008076
v 0.014160 0.000678 -0.010608
v 0.015704 0.000678 -0.013497
v 0.016655 0.000678 -0.016633
v 0.016977 0.000678 -0.019893
v 0.016655 0.000678 -0.023154
v 0.015704 0.000678 -0.026289
v 0.014160 0.000678 -0.029178
v 0.012082 0.000678 -0.031711
v 0.009549 0.000678 -0.033789
v 0.006660 0.000678 -0.035334
v 0.003524 0.000678 -0.036285
v 0.000300 0.000026 -0.035789
v -0.002775 0.000040 -0.035208
v -0.005669 -0.000055 -0.034413
v -0.008688 -0.000024 -0.033266
v -0.011110 -0.000105 -0.031234
v -0.013082 0.000161 -0.028633
v -0.014513 -0.000179 -0.025999
v -0.015328 0.000003 -0.023010
v -0.015562 0.000157 -0.019843
v -0.015305 -0.000022 -0.016841
v -0.014331 -0.000036 -0.013553
v -0.012913 -0.000032 -0.011068
v -0.010963 -0.000005 -0.008674
v -0.008520 0.000003 -0.006665
v 0.009037 -0.000061 -0.006802
v 0.011505 -0.000181 -0.008529
v 0.013473 -0.000119 -0.010901
v 0.015033 0.000037 -0.013769
v 0.015701 0.000057 -0.016851
v 0.016014 0.000028 -0.019760
v 0.015917 0.000037 -0.023092
v 0.014735 -0.000205 -0.026033
v 0.013434 0.000088 -0.028743
v 0.011556 -0.000095 -0.031096
v 0.009276 0.000045 -0.032871
v 0.006322 0.000037 -0.034535
v 0.003368 0.000017 -0.035458
v -0.006231 -0.000000 -0.004915
v -0.003494 0.000000 -0.003873
v 0.000256 0.000000 -0.003504
v 0.004009 0.000000 -0.003873
v 0.007623 0.000000 -0.004967
v -0.005237 0.000144 -0.005447
v -0.003794 0.000078 -0.005017
v 0.000262 0.000000 -0.004636
v 0.004292 0.000000 -0.005033
v 0.008170 0.000000 -0.006208
v 0.008728 -0.000553 0.008268
v 0.008221 -0.000422 0.008898
v -0.005594 0.000000 0.008670
v 0.000264 -0.001621 -0.037599
v -0.003190 -0.001621 -0.037258
v -0.006512 -0.001621 -0.036251
v -0.009573 -0.001621 -0.034615
v -0.012256 -0.001621 -0.032413
v -0.014458 -0.001621 -0.029730
v -0.016094 -0.001621 -0.026669
v -0.017101 -0.001621 -0.023347
v -0.017441 -0.001621 -0.019893
v -0.017101 -0.001621 -0.016439
v -0.016094 -0.001621 -0.013118
v -0.014458 -0.001621 -0.010057
v -0.012256 -0.001621 -0.007374
v -0.009573 -0.001621 -0.005172
v 0.010101 -0.001621 -0.005172
v 0.012784 -0.001621 -0.007374
v 0.014985 -0.001621 -0.010057
v 0.016622 -0.001621 -0.013118
v 0.017629 -0.001621 -0.016439
v 0.017969 -0.001621 -0.019893
v 0.017629 -0.001621 -0.023347
v 0.016622 -0.001621 -0.026669
v 0.014985 -0.001621 -0.029730
v 0.012784 -0.001621 -0.032413
v 0.010101 -0.001621 -0.034615
v 0.007039 -0.001621 -0.036251
v 0.003718 -0.001621 -0.037258
v 0.008734 -0.001068 -0.003377
v 0.008807 -0.001068 0.006447
v 0.006755 -0.001621 0.009159
v 0.005288 -0.001621 0.010626
v 0.005435 -0.001155 0.011799
v 0.004335 -0.001621 0.020376
v 0.003822 -0.001621 0.021696
v 0.004115 -0.001400 0.022869
v 0.004042 -0.001621 0.032179
v 0.003162 -0.001621 0.033645
v 0.003089 -0.001621 0.034818
v 0.003969 -0.001621 0.035845
v 0.004262 -0.001621 0.042809
v 0.003236 -0.001621 0.043176
v 0.002576 -0.001621 0.043762
v -0.001310 -0.001621 0.047721
v -0.002556 -0.001621 0.047721
v -0.003949 -0.001621 0.046475
v -0.004462 -0.001621 0.045668
v -0.005342 -0.001621 0.044935
v -0.006955 -0.001621 0.043322
v -0.006955 -0.001621 0.009013
v -0.007394 -0.001621 0.008206
v -0.007541 -0.001621 0.005860
v -0.007541 -0.001621 -0.004183
v -0.000000 -0.001621 -0.034394
v -0.001013 -0.001621 -0.034295
v -0.001987 -0.001621 -0.033999
v -0.002885 -0.001621 -0.033519
v -0.003672 -0.001621 -0.032874
v -0.004317 -0.001621 -0.032087
v -0.004797 -0.001621 -0.031189
v -0.005093 -0.001621 -0.030215
v -0.005192 -0.001621 -0.029202
v -0.005093 -0.001621 -0.028189
v -0.004797 -0.001621 -0.027215
v -0.004317 -0.001621 -0.026318
v -0.003672 -0.001621 -0.025531
v -0.002885 -0.001621 -0.024885
v -0.001987 -0.001621 -0.024405
v -0.001013 -0.001621 -0.024110
v -0.000000 -0.001621 -0.024010
v 0.001013 -0.001621 -0.024110
v 0.001987 -0.001621 -0.024405
v 0.002885 -0.001621 -0.024885
v 0.003671 -0.001621 -0.025531
v 0.004317 -0.001621 -0.026318
v 0.004797 -0.001621 -0.027215
v 0.005093 -0.001621 -0.028189
v 0.005192 -0.001621 -0.029202
v 0.005093 -0.001621 -0.030215
v 0.004797 -0.001621 -0.031189
v 0.004317 -0.001621 -0.032087
v 0.003671 -0.001621 -0.032874
v 0.002885 -0.001621 -0.033519
v 0.001987 -0.001621 -0.033999
v 0.001013 -0.001621 -0.034295
v 0.000264 -0.002299 -0.036606
v -0.002997 -0.002299 -0.036285
v -0.006132 -0.002299 -0.035334
v -0.009021 -0.002299 -0.033789
v -0.011554 -0.002299 -0.031711
v -0.013632 -0.002299 -0.029178
v -0.015177 -0.002299 -0.026289
v -0.016128 -0.002299 -0.023154
v -0.016449 -0.002299 -0.019893
v -0.016128 -0.002299 -0.016633
v -0.015177 -0.002299 -0.013497
v -0.013632 -0.002299 -0.010608
v -0.011554 -0.002299 -0.008076
v -0.009021 -0.002299 -0.005997
v 0.009549 -0.001621 -0.005997
v 0.012082 -0.002299 -0.008076
v 0.014160 -0.002299 -0.010608
v 0.015704 -0.002299 -0.013497
v 0.016655 -0.002299 -0.016633
v 0.016977 -0.002299 -0.019893
v 0.016655 -0.002299 -0.023154
v 0.015704 -0.002299 -0.026289
v 0.014160 -0.002299 -0.029178
v 0.012082 -0.002299 -0.031711
v 0.009549 -0.002299 -0.033789
v 0.006660 -0.002299 -0.035334
v 0.003524 -0.002299 -0.036285
v 0.000281 -0.001684 -0.035754
v -0.002826 -0.001649 -0.035578
v -0.005659 -0.001695 -0.034446
v -0.008478 -0.001435 -0.033007
v -0.010973 -0.001677 -0.031162
v -0.012822 -0.001532 -0.028506
v -0.014393 -0.001705 -0.025972
v -0.015348 -0.001427 -0.023099
v -0.015603 -0.001746 -0.019960
v -0.015340 -0.001658 -0.016801
v -0.014463 -0.001703 -0.013795
v -0.012824 -0.001612 -0.011101
v -0.010808 -0.001555 -0.008688
v -0.008535 -0.001586 -0.006675
v 0.009121 -0.001799 -0.006646
v 0.011317 -0.001496 -0.008730
v 0.013292 -0.001644 -0.011134
v 0.014956 -0.001665 -0.013906
v 0.015971 -0.001545 -0.016851
v 0.016080 -0.001645 -0.019812
v 0.015967 -0.001454 -0.023027
v 0.014900 -0.001813 -0.025838
v 0.013471 -0.001425 -0.028664
v 0.011411 -0.001766 -0.030944
v 0.008967 -0.001713 -0.033054
v 0.006297 -0.001627 -0.034323
v 0.003383 -0.001545 -0.035355
v -0.006231 -0.001621 -0.004915
v -0.005078 -0.001592 -0.005685
v -0.002883 -0.001081 0.003278
v -0.004495 -0.001081 0.001760
v 0.008728 -0.001068 0.008268
v 0.008221 -0.001200 0.008898
v 0.003692 0.000000 0.010303
vn 0.0265 0.9863 0.1631
vn -0.2497 0.8612 0.4427
vn -0.3049 0.8258 0.4745
vn 0.0068 0.9979 0.0639
vn 0.1958 0.9444 -0.2640
vn 0.3917 0.7770 -0.4928
vn -0.0008 1.0000 -0.0029
vn -0.0244 0.9977 0.0639
vn -0.0000 1.0000 -0.0000
vn 0.0024 0.9995 0.0318
vn 0.0263 0.9991 0.0337
vn 0.0051 1.0000 0.0030
vn 0.0014 1.0000 -0.0018
vn 0.1021 0.9934 0.0530
vn -0.0433 0.9987 0.0284
vn -0.1535 0.9790 -0.1342
vn 0.2065 0.8638 0.4597
vn -0.3642 0.8068 -0.4653
vn -0.1415 0.9475 -0.2868
vn 0.0049 1.0000 0.0030
vn -0.0079 0.9999 0.0089
vn -0.0072 0.9999 0.0119
vn -0.0034 0.9999 0.0105
vn -0.0279 0.9993 0.0233
vn -0.0010 1.0000 0.0049
vn -0.0217 0.9995 0.0227
vn 0.0035 0.9998 0.0212
vn 0.0037 0.9343 0.3564
vn 0.0492 0.9589 0.2794
vn -0.0002 1.0000 -0.0000
vn -0.0049 1.0000 -0.0020
vn 0.0113 0.9997 -0.0218
vn -0.0032 1.0000 -0.0008
vn -0.3021 0.9532 -0.0154
vn -0.2873 0.9567 -0.0462
vn -0.0036 1.0000 -0.0009
vn -0.3011 0.9471 0.1109
vn -0.2767 0.9329 0.2303
vn -0.0065 1.0000 0.0052
vn 0.0010 1.0000 -0.0003
vn 0.3026 0.9531 -0.0007
vn 0.3607 0.9316 -0.0446
vn 0.0211 0.9975 -0.0679
vn 0.0097 0.9999 -0.0137
vn -0.0080 0.9971 0.0753
vn -0.0121 0.9998 -0.0149
vn -0.0128 0.9997 -0.0212
vn 0.0950 0.9547 0.2820
vn -0.0056 1.0000 0.0074
vn -0.0046 0.9999 0.0089
vn -0.0008 0.9999 0.0154
vn -0.0028 0.9997 0.0236
vn 0.0048 0.9994 0.0350
vn -0.0118 0.9999 0.0055
vn -0.0268 0.9950 -0.0959
vn -0.0098 0.9998 -0.0170
vn 0.0505 0.9928 0.1084
vn 0.0153 0.9997 0.0168
vn -0.0199 0.9996 -0.0210
vn -0.0213 0.9998 -0.0052
vn -0.0147 0.9999 -0.0059
vn -0.0293 0.9981 -0.0547
vn -0.0013 1.0000 0.0008
vn -0.0015 1.0000 0.0006
vn 0.0183 0.9998 -0.0005
vn -0.0011 1.0000 0.0006
vn 0.0055 1.0000 0.0082
vn -0.0020 1.0000 -0.0013
vn -0.0035 1.0000 0.0001
vn -0.0065 0.9998 0.0213
vn -0.0016 1.0000 0.0015
vn -0.0069 1.0000 -0.0022
vn -0.0002 1.0000 0.0002
vn 0.3988 0.8258 0.3988
vn 0.4689 0.8258 0.3133
vn 0.5210 0.8258 0.2158
vn 0.5531 0.8258 0.1100
vn 0.5639 0.8258 -0.0000
vn 0.5531 0.8258 -0.1100
vn 0.5210 0.8258 -0.2158
vn 0.4689 0.8258 -0.3133
vn 0.3988 0.8258 -0.3988
vn 0.3133 0.8258 -0.4689
vn 0.2158 0.8258 -0.5210
vn 0.1100 0.8258 -0.5531
vn -0.0000 0.8258 -0.5639
vn -0.1100 0.8258 -0.5531
vn -0.2158 0.8258 -0.5210
vn -0.3133 0.8258 -0.4689
vn -0.3988 0.8258 -0.3988
vn -0.4689 0.8258 -0.3133
vn -0.5210 0.8258 -0.2158
vn -0.5531 0.8258 -0.1100
vn -0.5639 0.8258 -0.0000
vn -0.5531 0.8258 0.1100
vn -0.5210 0.8258 0.2158
vn -0.4689 0.8258 0.3133
vn -0.3988 0.8258 0.3988
vn -0.5429 0.6491 -0.5329
vn -0.6160 0.6757 -0.4050
vn -0.5222 0.6656 -0.5332
vn -0.6146 0.6855 -0.3903
vn -0.6091 0.7540 -0.2459
vn -0.5448 0.8332 -0.0946
vn -0.5704 0.8213 -0.0113
vn -0.6343 0.7623 0.1283
vn -0.6152 0.7474 0.2508
vn -0.4777 0.8096 0.3412
vn -0.4697 0.7447 0.4742
vn -0.4923 0.7219 0.4864
vn -0.3347 0.8106 0.4805
vn -0.3166 0.8197 0.4773
vn -0.2319 0.8067 0.5436
vn -0.2320 0.8022 0.5502
vn -0.1231 0.7886 0.6025
vn -0.1218 0.7860 0.6061
vn 0.1063 0.8508 0.5146
vn 0.2064 0.8004 0.5629
vn 0.4017 0.6796 0.6139
vn 0.5398 0.6408 0.5459
vn 0.5348 0.6579 0.5303
vn 0.5094 0.8060 0.3014
vn 0.5139 0.8054 0.2953
vn 0.6756 0.6781 0.2894
vn 0.7036 0.6454 0.2973
vn 0.6305 0.7672 0.1178
vn 0.5222 0.8526 -0.0193
vn 0.6158 0.7809 -0.1042
vn 0.6149 0.7509 -0.2408
vn 0.6076 0.7496 -0.2625
vn 0.5319 0.7650 -0.3630
vn 0.5250 0.7696 -0.3635
vn 0.4452 0.7754 -0.4478
vn 0.4442 0.7765 -0.4469
vn 0.2166 0.8205 0.5291
vn -0.1532 0.9788 0.1361
vn -0.0454 0.9980 0.0433
vn 0.0265 -0.9863 0.1631
vn -0.2497 -0.8612 0.4427
vn 0.0537 -0.9986 -0.0033
vn 0.2190 -0.9354 -0.2776
vn -0.0075 -1.0000 -0.0059
vn -0.0004 -1.0000 0.0016
vn 0.2646 0.9643 -0.0019
vn 0.2374 0.9714 0.0032
vn 0.1221 0.9925 0.0003
vn -0.8234 0.5598 0.0930
vn -0.8073 0.5678 0.1606
vn -0.7761 0.5874 0.2293
vn 0.7565 0.6412 0.1287
vn 0.7841 0.6116 0.1056
vn 0.8742 0.4853 0.0142
vn 0.6997 -0.7122 -0.0559
vn 0.4976 -0.8656 0.0554
vn 0.7515 -0.6567 -0.0627
vn -0.0907 0.9919 0.0891
vn 0.0105 -0.9999 -0.0031
vn -0.0037 -1.0000 -0.0035
vn 0.0150 -0.9970 0.0755
vn 0.7108 0.6982 0.0853
vn 0.6087 0.7639 0.2141
vn 0.5034 0.8619 -0.0613
vn 0.0896 -0.9959 -0.0091
vn 0.5883 -0.8085 -0.0123
vn 0.4095 -0.9115 -0.0387
vn -0.2224 0.9459 0.2361
vn -0.0000 -1.0000 -0.0000
vn -0.1283 -0.9612 0.2444
vn -0.0093 -1.0000 0.0001
vn -0.0012 -1.0000 0.0020
vn -0.3108 -0.9398 -0.1420
vn -0.2675 -0.9501 -0.1608
vn -0.0018 -1.0000 0.0027
vn -0.0054 -0.9991 0.0410
vn 0.0109 -0.9998 0.0153
vn 0.0089 -0.9993 0.0372
vn -0.0016 -1.0000 0.0023
vn -0.0013 -1.0000 0.0026
vn -0.0021 -1.0000 0.0031
vn -0.4190 -0.9009 0.1136
vn -0.0067 -1.0000 0.0059
vn 0.0116 -0.9999 -0.0009
vn 0.0041 -1.0000 -0.0010
vn 0.0161 -0.9998 -0.0111
vn -0.2932 -0.9480 0.1235
vn 0.0189 -0.9998 -0.0087
vn -0.2976 -0.9352 0.1920
vn -0.0124 -0.9999 -0.0045
vn 0.3381 -0.9387 -0.0671
vn 0.3186 -0.9479 0.0007
vn -0.2116 -0.9416 0.2621
vn -0.0143 -0.9996 0.0225
vn -0.1714 -0.9553 0.2408
vn 0.0014 -0.9998 0.0193
vn 0.0814 -0.9484 0.3065
vn 0.0172 -0.9994 0.0284
vn 0.0053 -0.9990 -0.0440
vn 0.0066 -0.9992 -0.0391
vn 0.0217 -0.9996 0.0152
vn 0.0026 -0.9998 0.0176
vn 0.0109 -0.9998 0.0155
vn 0.0262 -0.9996 -0.0123
vn 0.2599 -0.9279 0.2674
vn 0.0054 -0.9999 0.0093
vn 0.2508 -0.9583 0.1371
vn -0.0095 -0.9999 -0.0094
vn 0.0301 -0.9971 0.0694
vn 0.0101 -0.9999 0.0025
vn 0.0025 -1.0000 0.0080
vn -0.0411 -0.9979 -0.0504
vn 0.0025 -1.0000 -0.0010
vn 0.0021 -1.0000 -0.0014
vn -0.2193 -0.9435 -0.2485
vn 0.0018 -1.0000 0.0011
vn 0.0039 -1.0000 0.0057
vn -0.0024 -1.0000 -0.0015
vn 0.0158 -0.9999 -0.0006
vn 0.1884 -0.9527 0.2386
vn 0.0147 -0.9999 0.0066
vn 0.0197 -0.9997 0.0132
vn 0.0045 -1.0000 -0.0039
vn 0.4689 -0.8258 0.3133
vn 0.3188 -0.8534 0.4124
vn 0.3418 -0.8233 0.4532
vn 0.5210 -0.8258 0.2158
vn 0.5531 -0.8258 0.1100
vn 0.5639 -0.8258 -0.0000
vn 0.5531 -0.8258 -0.1100
vn 0.5210 -0.8258 -0.2158
vn 0.4689 -0.8258 -0.3133
vn 0.3988 -0.8258 -0.3988
vn 0.3133 -0.8258 -0.4689
vn 0.2158 -0.8258 -0.5210
vn 0.1100 -0.8258 -0.5531
vn -0.0000 -0.8258 -0.5639
vn -0.1100 -0.8258 -0.5531
vn -0.2158 -0.8258 -0.5210
vn -0.3133 -0.8258 -0.4689
vn -0.3988 -0.8258 -0.3988
vn -0.4689 -0.8258 -0.3133
vn -0.5210 -0.8258 -0.2158
vn -0.5531 -0.8258 -0.1100
vn -0.5639 -0.8258 -0.0000
vn -0.5531 -0.8258 0.1100
vn -0.5210 -0.8258 0.2158
vn -0.4689 -0.8258 0.3133
vn -0.3988 -0.8258 0.3988
vn -0.4189 -0.8249 -0.3795
vn -0.5418 -0.8062 -0.2377
vn -0.4520 -0.8398 -0.3006
vn -0.6944 -0.7008 -0.1633
vn -0.6943 -0.7029 -0.1544
vn -0.6272 -0.7788 -0.0085
vn -0.5901 -0.8073 -0.0100
vn -0.7196 -0.6673 0.1921
vn -0.4839 -0.8615 0.1540
vn -0.5465 -0.7259 0.4176
vn -0.3401 -0.8812 0.3282
vn -0.2227 -0.8388 0.4968
vn -0.2970 -0.8470 0.4408
vn -0.1193 -0.7892 0.6025
vn -0.0169 -0.8073 0.5898
vn -0.1140 -0.7832 0.6113
vn 0.1587 -0.7523 0.6394
vn -0.0123 -0.8044 0.5940
vn 0.1529 -0.7594 0.6324
vn 0.1814 -0.8411 0.5096
vn 0.3781 -0.7455 0.5488
vn 0.4945 -0.8059 0.3255
vn 0.4352 -0.7887 0.4341
vn 0.5165 -0.8151 0.2624
vn 0.7196 -0.6845 0.1170
vn 0.5402 -0.8007 0.2588
vn 0.7203 -0.6855 0.1063
vn 0.5565 -0.8308 0.0102
vn 0.5625 -0.7927 -0.2349
vn 0.6095 -0.7831 -0.1234
vn 0.4896 -0.8070 -0.3302
vn 0.5646 -0.7915 -0.2340
vn 0.4873 -0.8070 -0.3335
vn 0.4358 -0.7923 -0.4270
vn -0.3049 -0.8258 0.4745
vn 0.4378 -0.7875 -0.4338
vn 0.4042 -0.7633 -0.5040
vn -0.0008 -0.9805 0.1966
vn -0.1183 -0.9898 0.0791
vn 0.2711 0.9271 0.2588
vn 0.1056 0.9944 -0.0031
vn -0.0360 0.9833 0.1786
vn 0.0716 0.9934 0.0892
vn -0.7975 0.6032 0.0091
vn -0.7976 0.6031 0.0091
vn 0.8537 0.5206 -0.0140
vn 0.9383 0.3455 0.0157
vn -0.7287 0.6842 0.0280
vn -0.7765 0.6299 0.0152
vn -0.7819 0.6233 0.0137
vn 0.4969 0.8664 0.0490
vn 0.9761 0.1509 -0.1566
vn 0.7161 0.6979 0.0126
vn 0.4132 0.9102 -0.0265
vn 0.6171 0.7846 0.0604
vn 0.3235 0.9462 -0.0111
vn 0.5176 0.8550 -0.0333
vn 0.2203 0.9687 0.1146
vn -0.6586 0.7524 0.0120
vn -0.8164 0.5774 0.0133
vn 0.6292 -0.0000 -0.7772
vn 0.7063 -0.0000 -0.7080
vn 0.6881 -0.0000 -0.7256
vn 0.7593 -0.0000 -0.6508
vn 0.9981 -0.0000 0.0624
vn 0.7182 0.6482 0.2528
vn 0.8362 -0.0000 0.5485
vn 0.8308 -0.0000 0.5566
vn 0.8087 -0.0000 0.5882
vn 0.7894 -0.0000 -0.6139
vn 0.9111 -0.0000 -0.4122
vn 0.9701 -0.0000 -0.2425
vn 0.9320 -0.0000 0.3624
vn 0.8803 -0.0000 0.4744
vn 0.8321 -0.0000 -0.5547
vn 0.9537 -0.0000 -0.3006
vn 0.9538 -0.0000 -0.3006
vn 0.9923 -0.0000 -0.1240
vn 0.7071 -0.0000 0.7071
vn 0.1756 -0.0000 0.9845
vn 0.7795 -0.0000 0.6264
vn 0.9990 -0.0000 0.0436
vn 0.9998 -0.0000 0.0181
vn 1.0000 -0.0000 -0.0075
vn 0.7131 -0.0000 0.7010
vn 0.8315 -0.0000 0.5556
vn 0.9239 -0.0000 0.3827
vn 0.9808 -0.0000 0.1951
vn 1.0000 -0.0000 -0.0000
vn 0.9808 -0.0000 -0.1951
vn 0.9239 -0.0000 -0.3827
vn 0.8315 -0.0000 -0.5556
vn 0.7071 -0.0000 -0.7071
vn 0.5556 -0.0000 -0.8315
vn 0.3827 -0.0000 -0.9239
vn 0.1951 -0.0000 -0.9808
vn -0.0000 -0.0000 -1.0000
vn -0.1951 -0.0000 -0.9808
vn -0.3827 -0.0000 -0.9239
vn -0.5556 -0.0000 -0.8315
vn -0.7071 -0.0000 -0.7071
vn -0.8315 -0.0000 -0.5556
vn -0.9239 -0.0000 -0.3827
vn -0.9808 -0.0000 -0.1951
vn -1.0000 -0.0000 -0.0000
vn -0.9808 -0.0000 0.1951
vn -0.9239 -0.0000 0.3827
vn -0.8315 -0.0000 0.5556
vn -0.7071 -0.0000 0.7071
vn -0.5397 -0.0000 0.8419
vn -0.4375 -0.0000 0.8992
vn 0.6991 -0.0000 0.7151
vn 0.7137 -0.0000 0.7005
vn 0.6894 -0.0000 0.7244
vn -0.0000 -0.0000 1.0000
vn -0.6668 -0.0000 0.7452
vn -0.7624 -0.0000 0.6471
vn -0.7728 -0.0000 0.6347
vn -0.7509 -0.0000 0.6604
vn -0.7204 -0.0000 0.6936
vn -0.6743 -0.0000 0.7384
vn -0.6810 -0.0000 0.7323
vn -0.9690 -0.0000 0.2471
vn -0.9608 -0.0000 0.2772
vn -0.9995 -0.0000 0.0312
vn 0.5133 -0.0000 0.8582
vn 0.4514 -0.0000 0.8923
vn 0.5026 -0.0000 0.8645
vn 0.6332 -0.0000 0.7740
vn 0.6763 0.7366 -0.0074
vn 0.6331 0.7740 -0.0069
vn -0.8000 0.5999 0.0100
vn -0.7703 0.6375 0.0151
vn 0.8000 -0.0000 0.6000
vn -0.1951 -0.0000 0.9808
vn -0.3827 -0.0000 0.9239
vn -0.5556 -0.0000 0.8315
vn 0.5556 -0.0000 0.8315
vn 0.3827 -0.0000 0.9239
vn 0.1951 -0.0000 0.9808
vn 0.7956 -0.0000 0.6058
vn -0.6127 0.7486 -0.2535
vn -0.6443 0.7545 0.1248
vn 0.0013 0.7813 0.6242
vn 0.4159 0.6619 0.6236
vn 0.6267 0.7693 0.1241
vn 0.2654 0.9641 0.0116
vn 0.5455 -0.8259 -0.1424
vn 0.7090 -0.7052 -0.0000
vn 0.5628 -0.8092 -0.1688
vn 0.3137 -0.9434 0.1076
vn 0.7161 -0.6979 0.0126
vn 0.0505 -0.9987 -0.0089
vn 0.8005 -0.5928 0.0881
vn 0.2803 -0.9525 -0.1189
vn -0.4703 -0.8552 -0.2179
vn 0.7659 -0.6323 0.1164
vn 0.3640 -0.9238 0.1183
vn 0.0929 -0.9956 0.0123
vn 0.0764 -0.9935 -0.0848
vn 0.2802 -0.9596 0.0245
vn 0.0231 -0.9233 -0.3833
vn 0.1310 -0.9762 0.1730
vn -0.0017 -1.0000 -0.0094
vn 0.6624 0.7491 -0.0133
vn 0.5480 0.7933 0.2652
vn 0.7241 -0.5653 -0.3950
vn 0.2397 -0.9702 0.0349
vn 0.2506 -0.9666 0.0542
vn 0.2410 -0.9650 -0.1033
vn 0.4613 -0.8864 0.0384
vn 0.8498 0.5268 -0.0149
vn -0.7197 0.6936 0.0303
vn 0.3137 0.9434 0.1076
vn 0.5628 0.8092 -0.1688
vn 0.6966 0.7168 -0.0293
vn 0.6857 0.7269 -0.0363
vn 0.5888 0.8082 -0.0146
vn 0.6364 0.7712 -0.0134
vn 0.4613 0.8864 0.0384
vn 0.2410 0.9650 -0.1033
vn 0.7323 0.6751 0.0890
vn -0.1267 0.8952 0.4273
vn 0.0896 0.9958 -0.0203
vn 0.2803 0.9525 -0.1189
vn -0.6552 0.7554 0.0121
vn 0.9549 -0.0000 0.2969
vn 0.5097 -0.0000 0.8604
vn 0.6448 0.7643 -0.0079
vn 0.6002 0.7999 -0.0042
vn -0.7647 0.6442 0.0160
s 1
f 72//1 130//2 14//3
f 171//4 157//5 130//6
f 100//7 157//5 176//8
f 15//9 171//4 72//1
f 172//10 176//8 171//4
f 177//11 100//7 176//8
f 173//9 15//9 16//9
f 178//12 172//10 173//9
f 101//13 177//11 178//12
f 17//9 173//9 16//9
f 174//9 178//12 173//9
f 179//9 101//13 178//12
f 18//14 174//9 17//9
f 175//15 179//9 174//9
f 180//16 102//9 179//9
f 19//17 175//15 18//14
f 131//18 180//16 175//15
f 158//19 103//20 180//16
f 169//21 114//22 113//23
f 161//24 105//25 160//26
f 85//27 144//28 145//29
f 99//30 156//31 157//5
f 164//32 108//33 163//34
f 161//24 162//35 107//36
f 165//37 166//38 110//39
f 94//40 152//41 153//42
f 167//43 112//44 166//38
f 168//45 113//23 167//43
f 89//46 88//47 146//48
f 170//49 115//50 169//21
f 144//28 116//51 170//49
f 162//35 163//34 108//33
f 145//29 87//52 86//53
f 146//48 88//47 87//52
f 166//38 111//54 110//39
f 148//55 90//56 89//46
f 149//57 91//58 90//56
f 150//59 92//60 91//58
f 150//59 93//61 92//60
f 151//62 94//40 93//61
f 164//32 165//37 110//39
f 153//42 96//63 95//64
f 159//65 160//26 105//25
f 97//66 96//63 153//42
f 104//67 159//65 105//25
f 161//24 106//68 105//25
f 106//68 161//24 107//36
f 107//36 162//35 108//33
f 164//32 109//69 108//33
f 109//69 164//32 110//39
f 166//38 112//44 111//54
f 167//43 113//23 112//44
f 168//45 169//21 113//23
f 169//21 115//50 114//22
f 170//49 116//51 115//50
f 144//28 85//27 116//51
f 86//53 85//27 145//29
f 145//29 146//48 87//52
f 147//70 89//46 146//48
f 147//70 148//55 89//46
f 148//55 149//57 90//56
f 149//57 150//59 91//58
f 150//59 151//62 93//61
f 151//62 152//41 94//40
f 95//64 94//40 153//42
f 154//71 97//66 153//42
f 154//71 155//72 97//66
f 98//73 97//66 156//31
f 97//66 155//72 156//31
f 103//20 159//65 104//67
f 20//74 133//75 132//74
f 133//75 22//76 134//76
f 22//76 135//77 134//76
f 23//77 136//78 135//77
f 24//78 137//79 136//78
f 25//79 138//80 137//79
f 26//80 139//81 138//80
f 27//81 140//82 139//81
f 28//82 141//83 140//82
f 141//83 30//84 142//84
f 30//84 143//85 142//84
f 143//85 1//86 117//86
f 1//86 118//87 117//86
f 118//87 3//88 119//88
f 3//88 120//89 119//88
f 120//89 5//90 121//90
f 121//90 6//91 122//91
f 122//91 7//92 123//92
f 7//92 124//93 123//92
f 124//93 9//94 125//94
f 9//94 126//95 125//94
f 126//95 11//96 127//96
f 11//96 128//97 127//96
f 12//97 129//98 128//97
f 132//99 160//100 159//101
f 133//102 161//103 160//100
f 161//103 135//104 162//35
f 135//104 163//34 162//35
f 136//105 164//106 163//34
f 164//106 138//107 165//37
f 165//37 139//108 166//38
f 166//38 140//109 167//110
f 140//109 168//111 167//110
f 141//112 169//113 168//111
f 142//114 170//115 169//113
f 143//116 144//28 170//115
f 144//28 118//117 145//29
f 118//117 146//48 145//29
f 119//118 147//119 146//48
f 147//119 121//120 148//121
f 148//121 122//122 149//123
f 149//123 123//124 150//125
f 123//124 151//126 150//125
f 151//126 125//127 152//41
f 152//41 126//128 153//42
f 153//42 127//129 154//130
f 154//130 128//131 155//132
f 155//132 129//133 156//134
f 13//98 130//2 129//98
f 130//6 156//134 129//133
f 20//74 131//135 19//17
f 131//18 159//101 158//19
f 62//9 16//9 80//9
f 81//9 82//9 16//9
f 16//9 82//9 17//9
f 78//136 79//9 16//9
f 15//9 78//136 16//9
f 76//137 15//9 72//1
f 75//9 76//137 72//1
f 74//9 75//9 72//1
f 74//9 71//9 73//9
f 70//9 73//9 71//9
f 235//138 281//139 322//140
f 183//9 69//9 67//9
f 322//140 308//141 323//142
f 308//141 251//143 323//142
f 182//144 33//145 83//146
f 324//147 79//148 78//149
f 82//150 81//151 84//152
f 223//153 222//154 57//155
f 76//137 324//156 78//136
f 232//157 252//158 309//159
f 325//160 75//161 74//162
f 219//163 218//164 47//165
f 65//9 324//156 325//166
f 224//167 222//167 223//167
f 320//168 264//169 265//170
f 312//171 311//172 256//173
f 236//174 296//175 295//176
f 250//177 307//178 249//179
f 315//180 314//181 259//182
f 312//171 258//183 313//184
f 316//185 261//186 317//187
f 245//188 304//189 303//190
f 318//191 317//187 263//192
f 319//193 318//191 264//169
f 240//194 297//195 239//196
f 321//197 320//168 266//198
f 295//176 321//197 267//199
f 313//184 259//182 314//181
f 296//175 237//200 238//201
f 297//195 238//201 239//196
f 317//187 261//186 262//202
f 299//203 240//194 241//204
f 300//205 241//204 242//206
f 301//207 242//206 243//208
f 301//207 243//208 244//209
f 302//210 244//209 245//188
f 315//180 261//186 316//185
f 304//189 246//211 247//212
f 310//213 256//173 311//172
f 248//214 304//189 247//212
f 255//215 256//173 310//213
f 312//171 256//173 257//216
f 257//216 258//183 312//171
f 258//183 259//182 313//184
f 315//180 259//182 260//217
f 260//217 261//186 315//180
f 317//187 262//202 263//192
f 318//191 263//192 264//169
f 319//193 264//169 320//168
f 320//168 265//170 266//198
f 321//197 266//198 267//199
f 295//176 267//199 236//174
f 237//200 296//175 236//174
f 296//175 238//201 297//195
f 298//218 297//195 240//194
f 298//218 240//194 299//203
f 299//203 241//204 300//205
f 300//205 242//206 301//207
f 301//207 244//209 302//210
f 302//210 245//188 303//190
f 246//211 304//189 245//188
f 305//219 304//189 248//214
f 305//219 248//214 306//220
f 249//179 307//178 248//214
f 248//214 307//178 306//220
f 254//221 310//213 309//159
f 284//222 199//223 283//224
f 285//225 200//222 284//222
f 286//226 201//225 285//225
f 287//227 202//226 286//226
f 288//228 203//227 287//227
f 288//228 205//229 204//228
f 290//230 205//229 289//229
f 291//231 206//230 290//230
f 292//232 207//231 291//231
f 292//232 209//233 208//232
f 294//234 209//233 293//233
f 294//234 184//235 210//234
f 269//236 184//235 268//235
f 269//236 186//237 185//236
f 271//238 186//237 270//237
f 271//238 188//239 187//238
f 272//239 189//240 188//239
f 273//240 190//241 189//240
f 275//242 190//241 274//241
f 275//242 192//243 191//242
f 277//244 192//243 276//243
f 277//244 194//245 193//244
f 279//246 194//245 278//245
f 280//247 195//246 279//246
f 311//172 283//248 310//213
f 311//172 285//249 284//250
f 312//171 286//251 285//249
f 313//252 287//253 286//251
f 315//180 287//253 314//254
f 316//185 288//255 315//180
f 317//187 289//256 316//185
f 318//191 290//257 317//187
f 319//193 291//258 318//191
f 319//193 293//259 292//260
f 321//261 293//259 320//168
f 295//262 294//263 321//261
f 296//264 268//265 295//262
f 297//195 269//266 296//264
f 298//218 270//267 297//195
f 299//203 271//268 298//218
f 299//203 273//269 272//270
f 301//271 273//269 300//205
f 302//272 274//273 301//271
f 303//190 275//274 302//272
f 304//189 276//275 303//190
f 305//276 277//277 304//189
f 305//276 279//278 278//279
f 306//280 280//281 279//278
f 196//247 281//139 197//282
f 307//283 281//284 280//281
f 282//285 199//223 198//286
f 309//159 283//248 282//285
f 32//287 83//146 33//145
f 18//14 32//287 19//17
f 18//14 82//9 83//146
f 34//288 83//146 35//289
f 328//290 83//146 82//9
f 82//291 84//292 328//291
f 84//152 62//293 52//294
f 61//295 53//296 52//297
f 53//298 57//299 56//300
f 50//301 46//302 44//303
f 328//290 39//304 37//305
f 64//306 80//307 324//147
f 54//308 222//309 53//310
f 222//309 52//311 53//310
f 221//312 51//313 52//294
f 51//313 219//314 50//315
f 50//315 219//314 49//316
f 44//317 218//318 43//318
f 218//318 42//319 43//318
f 217//320 41//321 42//320
f 37//322 215//323 36//324
f 215//323 35//325 36//324
f 214//326 34//326 35//326
f 213//327 182//327 34//327
f 327//328 181//328 182//328
f 181//329 212//330 33//330
f 212//330 32//331 33//330
f 199//326 19//332 198//332
f 200//333 20//326 199//326
f 201//334 21//333 200//333
f 202//335 22//334 201//334
f 203//336 23//335 202//335
f 204//337 24//336 203//336
f 205//338 25//337 204//337
f 206//339 26//338 205//338
f 207//340 27//339 206//339
f 208//341 28//340 207//340
f 209//342 29//341 208//341
f 210//343 30//342 209//342
f 184//344 31//343 210//343
f 185//345 1//344 184//344
f 186//346 2//345 185//345
f 187//347 3//346 186//346
f 188//348 4//347 187//347
f 189//349 5//348 188//348
f 190//350 6//349 189//349
f 191//351 7//350 190//350
f 192//352 8//351 191//351
f 193//353 9//352 192//352
f 194//354 10//353 193//353
f 195//355 11//354 194//354
f 196//356 12//355 195//355
f 197//357 13//356 196//356
f 235//358 14//357 197//357
f 62//359 226//360 225//361
f 226//362 64//362 227//362
f 64//363 228//364 227//363
f 65//365 229//366 228//364
f 66//367 230//368 229//366
f 67//369 231//356 230//368
f 68//352 232//370 231//352
f 69//370 233//371 232//370
f 70//371 234//372 233//371
f 235//352 71//372 72//352
f 61//373 223//374 60//375
f 60//375 223//374 59//376
f 325//160 183//377 66//378
f 42//379 84//292 51//380
f 225//361 61//373 62//359
f 41//321 216//321 40//381
f 267//382 85//362 236//362
f 266//383 116//382 267//382
f 265//384 115//383 266//383
f 264//356 114//384 265//384
f 263//355 113//356 264//356
f 262//354 112//355 263//355
f 261//353 111//354 262//354
f 260//352 110//353 261//353
f 259//351 109//352 260//352
f 258//350 108//351 259//351
f 257//349 107//350 258//350
f 256//348 106//349 257//349
f 255//347 105//348 256//348
f 254//346 104//347 255//347
f 253//345 103//346 254//346
f 252//344 102//345 253//345
f 251//343 101//344 252//344
f 250//342 100//343 251//343
f 249//341 99//342 250//342
f 248//340 98//341 249//341
f 247//339 97//340 248//340
f 246//338 96//339 247//339
f 245//337 95//338 246//338
f 244//336 94//337 245//337
f 243//335 93//336 244//336
f 242//334 92//335 243//335
f 241//333 91//334 242//334
f 240//326 90//333 241//333
f 239//385 89//326 240//326
f 238//386 88//385 239//385
f 237//387 87//386 238//386
f 236//362 86//387 237//387
f 211//388 19//332 32//388
f 72//1 171//4 130//2
f 171//4 176//8 157//5
f 100//7 99//30 157//5
f 15//9 172//10 171//4
f 172//10 177//11 176//8
f 173//9 172//10 15//9
f 178//12 177//11 172//10
f 101//13 100//7 177//11
f 17//9 174//9 173//9
f 174//9 179//9 178//12
f 179//9 102//9 101//13
f 18//14 175//15 174//9
f 175//15 180//16 179//9
f 180//16 103//20 102//9
f 19//17 131//135 175//15
f 131//18 158//19 180//16
f 99//30 98//73 156//31
f 103//20 158//19 159//65
f 20//74 21//75 133//75
f 133//75 21//75 22//76
f 22//76 23//77 135//77
f 23//77 24//78 136//78
f 24//78 25//79 137//79
f 25//79 26//80 138//80
f 26//80 27//81 139//81
f 27//81 28//82 140//82
f 28//82 29//83 141//83
f 141//83 29//83 30//84
f 30//84 31//85 143//85
f 143//85 31//85 1//86
f 1//86 2//87 118//87
f 118//87 2//87 3//88
f 3//88 4//89 120//89
f 120//89 4//89 5//90
f 121//90 5//90 6//91
f 122//91 6//91 7//92
f 7//92 8//93 124//93
f 124//93 8//93 9//94
f 9//94 10//95 126//95
f 126//95 10//95 11//96
f 11//96 12//97 128//97
f 12//97 13//98 129//98
f 132//99 133//102 160//100
f 133//102 134//389 161//103
f 161//103 134//389 135//104
f 135//104 136//105 163//34
f 136//105 137//390 164//106
f 164//106 137//390 138//107
f 165//37 138//107 139//108
f 166//38 139//108 140//109
f 140//109 141//112 168//111
f 141//112 142//114 169//113
f 142//114 143//116 170//115
f 143//116 117//391 144//28
f 144//28 117//391 118//117
f 118//117 119//118 146//48
f 119//118 120//392 147//119
f 147//119 120//392 121//120
f 148//121 121//120 122//122
f 149//123 122//122 123//124
f 123//124 124//393 151//126
f 151//126 124//393 125//127
f 152//41 125//127 126//128
f 153//42 126//128 127//129
f 154//130 127//129 128//131
f 155//132 128//131 129//133
f 13//98 14//3 130//2
f 130//6 157//5 156//134
f 20//74 132//74 131//135
f 131//18 132//99 159//101
f 80//9 63//9 62//9
f 62//9 81//9 16//9
f 16//9 79//9 80//9
f 15//9 77//9 78//136
f 76//137 77//9 15//9
f 74//9 72//1 71//9
f 70//9 183//9 73//9
f 235//138 197//282 281//139
f 183//9 70//9 69//9
f 69//9 68//9 67//9
f 322//140 281//284 308//141
f 308//141 250//177 251//143
f 83//146 34//288 182//144
f 182//144 181//394 33//145
f 324//147 80//307 79//148
f 58//395 59//396 223//153
f 222//154 54//397 55//398
f 222//154 55//398 56//399
f 57//155 58//395 223//153
f 222//154 56//399 57//155
f 78//136 77//9 76//137
f 76//137 325//166 324//156
f 217//400 219//163 220//167
f 221//167 224//167 225//167
f 217//400 220//167 221//167
f 39//401 40//402 216//403
f 217//400 221//167 225//167
f 39//401 216//403 217//400
f 37//167 38//167 39//167
f 215//404 37//405 39//401
f 217//400 225//167 226//167
f 215//404 39//401 217//400
f 214//406 215//404 217//400
f 217//400 226//167 227//167
f 227//167 228//167 229//167
f 229//167 230//167 231//167
f 232//157 233//167 234//167
f 229//167 231//167 232//157
f 217//400 227//167 229//167
f 214//406 217//400 229//167
f 232//157 234//167 235//138
f 214//406 229//167 232//157
f 326//407 327//408 213//409
f 213//409 214//406 232//157
f 232//157 235//138 322//140
f 323//142 251//143 252//158
f 232//157 322//140 323//142
f 326//407 213//409 232//157
f 211//410 212//167 326//407
f 282//285 198//286 211//410
f 253//411 254//221 309//159
f 309//159 282//285 211//410
f 211//410 326//407 232//157
f 232//157 323//142 252//158
f 252//158 253//411 309//159
f 309//159 211//410 232//157
f 74//162 73//412 325//160
f 325//160 76//413 75//161
f 219//163 217//400 218//164
f 218//164 44//414 45//415
f 218//164 45//415 46//416
f 48//417 49//418 219//163
f 218//164 46//416 47//165
f 47//165 48//417 219//163
f 65//9 64//9 324//156
f 224//167 221//167 222//167
f 250//177 308//141 307//178
f 254//221 255//215 310//213
f 284//222 200//222 199//223
f 285//225 201//225 200//222
f 286//226 202//226 201//225
f 287//227 203//227 202//226
f 288//228 204//228 203//227
f 288//228 289//229 205//229
f 290//230 206//230 205//229
f 291//231 207//231 206//230
f 292//232 208//232 207//231
f 292//232 293//233 209//233
f 294//234 210//234 209//233
f 294//234 268//235 184//235
f 269//236 185//236 184//235
f 269//236 270//237 186//237
f 271//238 187//238 186//237
f 271//238 272//239 188//239
f 272//239 273//240 189//240
f 273//240 274//241 190//241
f 275//242 191//242 190//241
f 275//242 276//243 192//243
f 277//244 193//244 192//243
f 277//244 278//245 194//245
f 279//246 195//246 194//245
f 280//247 196//247 195//246
f 311//172 284//250 283//248
f 311//172 312//171 285//249
f 312//171 313//252 286//251
f 313//252 314//254 287//253
f 315//180 288//255 287//253
f 316//185 289//256 288//255
f 317//187 290//257 289//256
f 318//191 291//258 290//257
f 319//193 292//260 291//258
f 319//193 320//168 293//259
f 321//261 294//263 293//259
f 295//262 268//265 294//263
f 296//264 269//266 268//265
f 297//195 270//267 269//266
f 298//218 271//268 270//267
f 299//203 272//270 271//268
f 299//203 300//205 273//269
f 301//271 274//273 273//269
f 302//272 275//274 274//273
f 303//190 276//275 275//274
f 304//189 277//277 276//275
f 305//276 278//279 277//277
f 305//276 306//280 279//278
f 306//280 307//283 280//281
f 196//247 280//247 281//139
f 307//283 308//141 281//284
f 282//285 283//224 199//223
f 309//159 310//213 283//248
f 32//287 18//14 83//146
f 18//14 17//9 82//9
f 328//290 35//289 83//146
f 52//294 51//313 84//152
f 84//152 81//151 62//293
f 62//293 61//419 52//294
f 61//295 60//420 53//296
f 55//421 54//422 53//298
f 53//298 60//423 59//424
f 59//424 58//9 57//299
f 56//300 55//421 53//298
f 53//298 59//424 57//299
f 43//425 42//426 50//301
f 50//301 49//427 48//428
f 50//301 48//428 47//429
f 44//303 43//425 50//301
f 46//302 45//9 44//303
f 50//301 47//429 46//302
f 36//430 35//289 328//290
f 328//290 42//9 41//431
f 41//431 40//432 39//304
f 37//305 36//430 328//290
f 328//290 41//431 39//304
f 64//306 63//433 80//307
f 222//309 221//311 52//311
f 221//312 220//434 51//313
f 51//313 220//434 219//314
f 218//318 217//319 42//319
f 217//320 216//321 41//321
f 215//323 214//325 35//325
f 214//326 213//326 34//326
f 213//327 327//327 182//327
f 327//328 326//328 181//328
f 181//329 326//329 212//330
f 212//330 211//331 32//331
f 199//326 20//326 19//332
f 200//333 21//333 20//326
f 201//334 22//334 21//333
f 202//335 23//335 22//334
f 203//336 24//336 23//335
f 204//337 25//337 24//336
f 205//338 26//338 25//337
f 206//339 27//339 26//338
f 207//340 28//340 27//339
f 208//341 29//341 28//340
f 209//342 30//342 29//341
f 210//343 31//343 30//342
f 184//344 1//344 31//343
f 185//345 2//345 1//344
f 186//346 3//346 2//345
f 187//347 4//347 3//346
f 188//348 5//348 4//347
f 189//349 6//349 5//348
f 190//350 7//350 6//349
f 191//351 8//351 7//350
f 192//352 9//352 8//351
f 193//353 10//353 9//352
f 194//354 11//354 10//353
f 195//355 12//355 11//354
f 196//356 13//356 12//355
f 197//357 14//357 13//356
f 235//358 72//358 14//357
f 62//359 63//360 226//360
f 226//362 63//362 64//362
f 64//363 65//365 228//364
f 65//365 66//367 229//366
f 66//367 67//369 230//368
f 67//369 68//356 231//356
f 68//352 69//370 232//370
f 69//370 70//371 233//371
f 70//371 71//372 234//372
f 235//352 234//372 71//372
f 61//373 224//435 223//374
f 66//378 65//436 325//160
f 325//160 73//412 183//377
f 183//377 67//437 66//378
f 51//380 50//438 42//379
f 42//379 328//291 84//292
f 225//361 224//435 61//373
f 267//382 116//382 85//362
f 266//383 115//383 116//382
f 265//384 114//384 115//383
f 264//356 113//356 114//384
f 263//355 112//355 113//356
f 262//354 111//354 112//355
f 261//353 110//353 111//354
f 260//352 109//352 110//353
f 259//351 108//351 109//352
f 258//350 107//350 108//351
f 257//349 106//349 107//350
f 256//348 105//348 106//349
f 255//347 104//347 105//348
f 254//346 103//346 104//347
f 253//345 102//345 103//346
f 252//344 101//344 102//345
f 251//343 100//343 101//344
f 250//342 99//342 100//343
f 249//341 98//341 99//342
f 248//340 97//340 98//341
f 247//339 96//339 97//340
f 246//338 95//338 96//339
f 245//337 94//337 95//338
f 244//336 93//336 94//337
f 243//335 92//335 93//336
f 242//334 91//334 92//335
f 241//333 90//333 91//334
f 240//326 89//326 90//333
f 239//385 88//385 89//326
f 238//386 87//386 88//385
f 237//387 86//387 87//386
f 236//362 85//362 86//387
f 211//388 198//332 19//332
